<?xml version='1.0' encoding='utf-8'?>
<svg xmlns="http://www.w3.org/2000/svg" width="2727.273" height="3000" viewBox="0 0 721.591 793.75"><g stroke-width=".037"><path d="M360.796 0c-19.744 0-39.485 8.292-54.613 24.89L0 360.794V793.75h721.591V360.795L415.408 24.89C400.28 8.292 380.538 0 360.796 0z" fill="#e6c0c0"/><path fill="#f0eee6" d="M90.198 43.293h541.2v649.446h-541.2z"/><path fill="#d8d7cf" d="M157.153 115.457h396.873v14.427H157.153zM157.153 173.193h396.873v14.427H157.153zM157.153 230.93h396.873v14.427H157.153zM157.153 288.639h396.873v14.427H157.153zM157.153 346.375h396.873v14.427H157.153zM157.153 404.111h396.873v14.428H157.153zM157.153 461.82h396.873v14.428H157.153zM157.153 519.557h396.873v14.427H157.153z"/><path d="M241.243 226.814a84.54 84.54 0 0 0 0 119.558L360.8 465.929l119.557-119.557a84.54 84.54 0 0 0 0-119.558 84.54 84.54 0 0 0-119.557 0 84.54 84.54 0 0 0-119.557 0z" fill="#f66"/><path d="M420.571 202.055a84.54 84.54 0 0 1 59.785 24.762 84.54 84.54 0 0 1 24.762 59.771 84.54 84.54 0 0 1-24.762 59.785L360.8 465.929V226.817a84.54 84.54 0 0 1 59.771-24.762z" fill="#e65c5c"/><path d="M0 360.795V793.75h721.591V360.795L360.796 577.273z" fill="#ffd5d5"/><path d="M721.591 793.75H0l360.796-216.477z" fill="#f3cbcb"/></g></svg>